<svg width="42" height="42" viewBox="0 0 42 42" fill="none" xmlns="http://www.w3.org/2000/svg">
<path d="M21 42C32.598 42 42 32.598 42 21C42 9.40202 32.598 0 21 0C9.40202 0 0 9.40202 0 21C0 32.598 9.40202 42 21 42Z" fill="#57BE97"/>
<path d="M29.7159 10H12.305C11.5853 10 11 10.5255 11 11.1717V31.8283C11 32.4745 11.5853 33 12.305 33H29.6944C30.4141 33 30.9994 32.4744 30.9994 31.8283V11.1717C31.0209 10.5255 30.4355 10 29.7159 10Z" fill="#FCFCFD"/>
<path d="M18.7341 17.1642C19.5583 16.8667 20.1333 16.0826 20.1333 15.1439C20.1333 13.9541 19.1864 13 18.0058 13C16.8251 13 15.8783 13.9541 15.8783 15.1439C15.8783 16.0672 16.4687 16.8667 17.2775 17.1642C15.4605 17.4925 14.0614 19.0724 14 21H22C21.9502 19.0724 20.5549 17.4925 18.7341 17.1642Z" fill="#57BE97"/>
<path d="M27 23H14V24.0798H27V23Z" fill="#57BE97"/>
<path d="M27 25.9028H14V26.9826H27V25.9028Z" fill="#57BE97"/>
<path d="M22.9387 28.8057H14V29.8854H22.9387V28.8057Z" fill="#57BE97"/>
</svg>
