<svg width="42" height="42" viewBox="0 0 42 42" fill="none" xmlns="http://www.w3.org/2000/svg">
<circle cx="21" cy="21" r="21" fill="#5E5E5E"/>
<path d="M24.9596 10.2929C24.7721 10.1054 24.5177 10 24.2525 10H12.8334C12.2811 10 11.8334 10.4477 11.8334 11V31C11.8334 31.5523 12.2811 32 12.8334 32H29.1667C29.719 32 30.1667 31.5523 30.1667 31V15.9142C30.1667 15.649 30.0614 15.3946 29.8738 15.2071L24.9596 10.2929ZM24.6667 12.75L27.4167 15.5H24.6667V12.75ZM14.6667 30.1667C14.1144 30.1667 13.6667 29.719 13.6667 29.1667V12.8333C13.6667 12.281 14.1144 11.8333 14.6667 11.8333H22.8334V16.3333C22.8334 16.8856 23.2811 17.3333 23.8334 17.3333H28.3334V29.1667C28.3334 29.719 27.8857 30.1667 27.3334 30.1667H14.6667Z" fill="white"/>
</svg>
