<svg width="42" height="42" viewBox="0 0 42 42" fill="none" xmlns="http://www.w3.org/2000/svg">
<circle cx="21" cy="21" r="21" fill="#5E5E5E"/>
<g clip-path="url(#clip0_57_231)">
<path d="M21.5122 8.19513C14.7235 8.19513 9.21948 13.6992 9.21948 20.4878C9.21948 27.2764 14.7235 32.7805 21.5122 32.7805C28.3008 32.7805 33.8048 27.2764 33.8048 20.4878C33.8048 13.6992 28.3008 8.19513 21.5122 8.19513ZM31.7561 20.4878C31.7561 21.1895 31.6844 21.8748 31.5491 22.5366H27.6022C27.7261 21.2223 27.7343 19.8517 27.6022 18.439H31.5491C31.6844 19.1008 31.7561 19.7861 31.7561 20.4878ZM30.8946 16.3903H27.3092C26.9168 14.3824 26.2315 12.5478 25.3137 10.9835C27.8081 11.9843 29.8179 13.9358 30.8946 16.3903ZM25.2051 16.3903H22.5366V10.5943C23.7812 12.0899 24.7052 14.0874 25.2051 16.3903ZM20.4878 10.5943V16.3903H17.8192C18.3191 14.0874 19.2431 12.0899 20.4878 10.5943ZM20.4878 18.439V22.5366H17.4863C17.3368 21.0809 17.3368 19.8967 17.4863 18.439H20.4878ZM20.4878 24.5854V30.3814C19.2431 28.8858 18.3191 26.8882 17.8192 24.5854H20.4878ZM22.5366 30.3814V24.5854H25.2051C24.7052 26.8882 23.7812 28.8858 22.5366 30.3814ZM22.5366 22.5366V18.439H25.538C25.6876 19.8947 25.6876 21.0789 25.538 22.5366H22.5366ZM17.7107 10.9835C16.7928 12.5478 16.1075 14.3824 15.7151 16.3903H12.1298C13.2064 13.9358 15.2163 11.9843 17.7107 10.9835ZM11.4752 18.439H15.4222C15.2982 19.7533 15.29 21.124 15.4222 22.5366H11.4752C11.34 21.8748 11.2683 21.1895 11.2683 20.4878C11.2683 19.7861 11.34 19.1008 11.4752 18.439V18.439ZM12.1298 24.5854H15.7151C16.1075 26.5932 16.7928 28.4279 17.7107 29.9921C15.2163 28.9913 13.2064 27.0398 12.1298 24.5854V24.5854ZM25.3137 29.9921C26.2315 28.4279 26.9168 26.5932 27.3092 24.5854H30.8946C29.8179 27.0398 27.8081 28.9913 25.3137 29.9921Z" fill="white"/>
</g>
<defs>
<clipPath id="clip0_57_231">
<rect width="24.5854" height="24.5854" fill="white" transform="translate(9.21948 8.19513)"/>
</clipPath>
</defs>
</svg>
