<svg xmlns="http://www.w3.org/2000/svg" viewBox="0 0 79.55 182.19"><defs><style>.cls-1,.cls-6{fill:#39b5af;}.cls-1,.cls-2,.cls-6{stroke:#39b5af;}.cls-1,.cls-11,.cls-2,.cls-3,.cls-4,.cls-5,.cls-7,.cls-8,.cls-9{stroke-linecap:round;stroke-linejoin:round;}.cls-1,.cls-2{stroke-width:0.75px;}.cls-2,.cls-7,.cls-8{fill:#fff;}.cls-12,.cls-3{fill:#f3bda9;stroke:#f3bda9;}.cls-4{fill:#d6e8ba;stroke:#d6e8ba;}.cls-5{fill:none;}.cls-5,.cls-9{stroke:#245236;}.cls-10,.cls-12,.cls-6{stroke-miterlimit:10;}.cls-6{stroke-width:1.3px;}.cls-7,.cls-8{stroke:#fff;}.cls-7{stroke-width:4px;}.cls-8{stroke-width:3px;}.cls-13,.cls-9{fill:#245236;}.cls-10,.cls-11{fill:#f0bba7;stroke:#f0bba7;}</style></defs><g id="Layer_2" data-name="Layer 2"><g id="old_assets" data-name="old assets"><path class="cls-1" d="M33.06,172.27a8.36,8.36,0,0,1,1.19,2.79,8.68,8.68,0,0,1-.45,5.09L.94,179.77s1.17-6.67,8-7.69l13.3.11Z"/><path class="cls-2" d="M34.35,178.08s1.34,1.35-.05,3.74L.38,181.55l0-3.74,11.4.09Z"/><path class="cls-2" d="M15.21,177.93.42,177.81A7.49,7.49,0,0,1,8.36,172l3.46,5.91"/><path class="cls-3" d="M23.1,154.32l-.27,17.4A10.53,10.53,0,0,0,28.31,174a11.15,11.15,0,0,0,5-.59q-.14-9.07-.28-18.16Z"/><path class="cls-1" d="M46.48,172.27a8.38,8.38,0,0,0-1.18,2.79,8.6,8.6,0,0,0,.45,5.09l32.86-.38s-1.17-6.67-8-7.69l-13.3.11Z"/><path class="cls-2" d="M45.2,178.08s-1.34,1.35,0,3.74l33.93-.27,0-3.74-11.4.09Z"/><path class="cls-2" d="M64.33,177.93l14.8-.12A7.51,7.51,0,0,0,71.18,172l-3.45,5.91"/><path class="cls-3" d="M56.42,154.32l.27,17.4A10.53,10.53,0,0,1,51.22,174a11.12,11.12,0,0,1-5-.59q.15-9.07.29-18.16Z"/><path class="cls-4" d="M57.47,81.44l7.68,85.85H40.78S39.27,104,38,104c-.8,0-1.56,23.28-2.28,62.52l-22.4-.19Q15,123.15,16.67,80Z"/><polygon class="cls-5" points="13.27 161.88 13.27 166.35 35.67 166.54 35.85 161.88 13.27 161.88"/><polygon class="cls-5" points="40.49 161.88 40.78 167.29 65.15 167.29 64.58 160.9 40.49 161.88"/><path class="cls-5" d="M55.61,87.41l7.13,72.81Z"/><path class="cls-5" d="M17.68,85.55l-2.59,76.33Z"/><path class="cls-6" d="M61.91,40.7a14.15,14.15,0,0,0-2.66-3c-4.65-4-10.68-3.85-12.52-3.74a16.56,16.56,0,0,0-4.61.15c-5.3.94-8.25,4.21-10,3.12-.94-.59-.4-1.81-1.73-2.88a5,5,0,0,0-3.33-.88,14.51,14.51,0,0,0-7.66,1.38c-6.38,3.2-8.34,11.07-9.36,15.13-.24,1-.4,1.8-.5,2.38a27.43,27.43,0,0,0-2.36,3,25.81,25.81,0,0,0-4,9.28C2.92,66.25,1.18,73.28,5.16,79A15.48,15.48,0,0,0,9,82.78a5.06,5.06,0,0,0,5,.36A4.65,4.65,0,0,0,16.38,80v4.83a145.77,145.77,0,0,0,14.49,2,147.4,147.4,0,0,0,27.39-.13,11.91,11.91,0,0,0,12.06-5.39,10.55,10.55,0,0,0-2.47-13.4Z"/><line class="cls-5" x1="51.49" y1="48.1" x2="52.87" y2="62.89"/><line class="cls-5" x1="18.72" y1="46.18" x2="18.72" y2="50.74"/><path class="cls-7" d="M24.83,63.92,56.14,65.2l-9.59,8.31-31.41-.92Z"/><path class="cls-8" d="M14.41,70.69l31.34.82L37.83,48.63,6.46,46.86Z"/><polygon class="cls-6" points="56.11 72.48 46.43 69.82 47.77 65.3 57.45 67.96 56.11 72.48"/><path class="cls-9" d="M46.91,65.31c5.48-.87,15.28,3.8,15.28,3.8"/><path class="cls-9" d="M48.41,65.75s10.11,6.31,3.25,13.77H48.15S54.84,75.68,51.44,69"/><path class="cls-9" d="M67.67,82.94S55.42,82,51.59,79.66"/><path class="cls-10" d="M47.31,66.5S42.45,61.09,39,62.83c0,0-1.57,1.6,3.25,6.5a8.42,8.42,0,0,1-5.94,2.51s-.86.21-.78,1,.13,1.76,1.69,1.72c0,0-3,2.73,1.8,4,0,0,3.53,4.28,7.27,1.64l2.22-.94S58.38,72,47.31,66.5Z"/><path class="cls-5" d="M44.9,71.92a15.26,15.26,0,0,1-2.84,1.6,15.69,15.69,0,0,1-3.48,1,2.84,2.84,0,0,0-1.37.1,2,2,0,0,0-.94.54,1.62,1.62,0,0,0-.34.7,1.91,1.91,0,0,0,.48,1.72,2.25,2.25,0,0,0,1.65.64"/><path class="cls-5" d="M47.4,75.31S41.56,79,39.81,78.88"/><path class="cls-5" d="M13.93,84.76s4.43-2,4.94-6.45"/><path class="cls-11" d="M9.82,76.24c-1-1.61-1.2-1.9-1.43-2.31a6.83,6.83,0,0,1-.46-3.54,11.25,11.25,0,0,1,2.38-5.48q1.3,2.1,2.62,4.19A7.73,7.73,0,0,1,15.71,67a8.29,8.29,0,0,1,2.71-.7s5.17-.37-2.81,5.43c0,0,5.74-3.6,6.26-2l.82,5S20.28,77,18.41,77.14a7.49,7.49,0,0,1-3.24,1.1c-.31,0-3.35.36-4.7-1C10.35,77.16,10.37,77.15,9.82,76.24Z"/><path class="cls-9" d="M18.87,78.31s-8.8,2.42-10.55-3.7C8.32,74.61,8.42,82.72,18.87,78.31Z"/><line class="cls-9" x1="5.46" y1="78.15" x2="8.32" y2="74.61"/><path class="cls-5" d="M21.47,66.56s1.19.93-5.22,4.63"/><polyline class="cls-5" points="13.47 68.35 11.06 70.01 11.06 70.01"/><path class="cls-12" d="M31.83,34a6.68,6.68,0,0,0-.23,1.17A3,3,0,0,0,31.73,37a2.61,2.61,0,0,0,1.91,1,5.43,5.43,0,0,0,2,0,17.94,17.94,0,0,0,5-1.68,10.39,10.39,0,0,0,3.23-2.18,8.87,8.87,0,0,0,2.21-4.79A25.7,25.7,0,0,1,39.4,33C39.31,33,39.24,33,31.83,34Z"/><path class="cls-10" d="M52,13.83s-17.15-17.89-26.1-6c0,0-9.49,20.66,5.61,25.27C31.53,33.14,51.47,36.53,52,13.83Z"/><path class="cls-10" d="M51.7,18.38s6.56,2.38.58,8.23c0,0-1.23,2.15-5.79,1.29s-2.91-7.78-2.91-7.78Z"/><path class="cls-5" d="M54.84,15.25l-9.76,1.92.18-1.58-10.47-2.4-.35,1.55L31.34,14c.1-.55.2-1.09.31-1.63l-9-2a17.79,17.79,0,0,0-.35,5.36c.25,2.83,1.05,3.87,1.26,4.14a5.79,5.79,0,0,0,2.09,1.6,2.24,2.24,0,0,0,1,.21c2-.09,3.81-3.21,4.65-7.66l3.1.71a34.79,34.79,0,0,0,1.19,5c.75,2.34,1.29,3.16,2.08,3.74a4.77,4.77,0,0,0,2,.84,4.4,4.4,0,0,0,3.55-1.83,7.28,7.28,0,0,0,1.11-2.47,19.47,19.47,0,0,0,.66-2.89"/><path class="cls-5" d="M53.16,20.67s-3.58-.61-3.63,3.38"/><path class="cls-5" d="M32.25,17.8s-3.15,1.74-.82,3.6"/><line class="cls-5" x1="47.98" y1="27.96" x2="45.88" y2="29.77"/><ellipse class="cls-5" cx="29.81" cy="25.8" rx="1.96" ry="1.45" transform="translate(-1.86 49.28) rotate(-77.43)"/><ellipse class="cls-9" cx="38.45" cy="19.21" rx="1.9" ry="1.16" transform="translate(11.28 52.51) rotate(-77.35)"/><ellipse class="cls-9" cx="27.77" cy="16.77" rx="1.9" ry="1.16" transform="translate(5.32 40.2) rotate(-77.35)"/><path class="cls-9" d="M53.07,12.79c-.14-4.34-3.07-8.45-7-10.59a15,15,0,0,0-11.65-.93S25.9-2.51,25.06,9c0,0,9.87,1.29,15.53-1.43,4.23,5.48,9,10.72,11.2,9.75C53.19,16.74,53.1,13.91,53.07,12.79Z"/><line class="cls-5" x1="38.06" y1="99.09" x2="38.26" y2="112.07"/><path class="cls-5" d="M7.92,58.11,4.19,46.81s-.21-2.08,3-1.9l10.55.65"/><ellipse class="cls-13" cx="24.01" cy="59.39" rx="2.44" ry="3.11" transform="translate(-14.59 8.27) rotate(-15.04)"/></g></g></svg>