<svg width="42" height="42" viewBox="0 0 42 42" fill="none" xmlns="http://www.w3.org/2000/svg">
<path d="M21 42C32.598 42 42 32.598 42 21C42 9.40202 32.598 0 21 0C9.40202 0 0 9.40202 0 21C0 32.598 9.40202 42 21 42Z" fill="#57BE97"/>
<path d="M10.3901 24.75H16.2149C16.0744 23.5654 16 22.3056 16 21C16 19.6944 16.0744 18.4346 16.2149 17.25H10.3901C9.97558 18.4229 9.75 19.6851 9.75 21C9.75 22.3149 9.97558 23.5771 10.3901 24.75ZM10.9194 26C12.4074 28.9942 15.1901 31.2314 18.535 31.9791C17.5611 30.6535 16.8152 28.5464 16.3922 26H10.9194ZM31.6099 24.75C32.0244 23.5771 32.25 22.3149 32.25 21C32.25 19.6851 32.0244 18.4229 31.6099 17.25H25.7851C25.9256 18.4346 26 19.6944 26 21C26 22.3056 25.9256 23.5654 25.7851 24.75H31.6099ZM31.0806 26H25.6078C25.1848 28.5464 24.4389 30.6535 23.465 31.9791C26.8099 31.2314 29.5926 28.9942 31.0806 26ZM17.4805 24.75H24.5195C24.6675 23.578 24.75 22.316 24.75 21C24.75 19.684 24.6675 18.422 24.5195 17.25H17.4805C17.3325 18.422 17.25 19.684 17.25 21C17.25 22.316 17.3325 23.578 17.4805 24.75ZM17.6687 26C18.3215 29.7098 19.6476 32.25 21 32.25C22.3524 32.25 23.6785 29.7098 24.3313 26H17.6687ZM10.9194 16H16.3922C16.8152 13.4536 17.5611 11.3465 18.535 10.0209C15.1901 10.7686 12.4074 13.0058 10.9194 16ZM31.0806 16C29.5926 13.0058 26.8099 10.7686 23.465 10.0209C24.4389 11.3465 25.1848 13.4536 25.6078 16H31.0806ZM17.6687 16H24.3313C23.6785 12.2902 22.3524 9.75 21 9.75C19.6476 9.75 18.3215 12.2902 17.6687 16ZM21 33.5C14.0964 33.5 8.5 27.9036 8.5 21C8.5 14.0964 14.0964 8.5 21 8.5C27.9036 8.5 33.5 14.0964 33.5 21C33.5 27.9036 27.9036 33.5 21 33.5Z" fill="white"/>
</svg>
