<svg xmlns="http://www.w3.org/2000/svg" viewBox="0 0 80.64 200.04"><defs><style>.cls-1{fill:#39b5af;stroke:#39b5af;}.cls-1,.cls-3,.cls-4,.cls-5{stroke-linecap:round;stroke-linejoin:round;}.cls-2{fill:#d6e8ba;stroke:#d6e8ba;stroke-width:1.3px;}.cls-2,.cls-6{stroke-miterlimit:10;}.cls-3{fill:none;}.cls-3,.cls-4{stroke:#245236;}.cls-4{fill:#245236;}.cls-5{fill:#fff;stroke:#fff;stroke-width:4px;}.cls-6{fill:#f0bba7;stroke:#f0bba7;}</style></defs><g id="Layer_2" data-name="Layer 2"><g id="old_assets" data-name="old assets"><path class="cls-1" d="M15.9,97.55l-8.76,102,61.79-1.41q-1.49-51.21-3-102.41Z"/><path class="cls-2" d="M10.93,47.08s5.64-15.34,15.72-10.85c0,0,17.84,16.19,27.61,0,0,0,14.25-4.86,19.92,25.25,0,0,13.07,28.06,0,33.49a8.38,8.38,0,0,1-8.23.75v6s-30,6.74-50,0C16,101.7.65,104.88.65,89Z"/><line class="cls-3" x1="23.83" y1="56.25" x2="22.21" y2="74.58"/><path class="cls-3" d="M30.28,70.05C23.63,71.7,15,81.69,15,81.69"/><path class="cls-4" d="M28.8,71.28s-8.18,12,3.44,17.18l4-1.69s-9.54-1.15-9.15-10.37"/><path class="cls-4" d="M15.9,100s13.37-6.91,16.48-11.42"/><path class="cls-3" d="M64.67,95.36s-5.27-2.24-6.08-7.77"/><line class="cls-3" x1="63.74" y1="53.87" x2="63.74" y2="59.51"/><path class="cls-5" d="M54.62,88.06,36,87.88q5.64-14.17,11.29-28.37H66Z"/><path class="cls-6" d="M31.15,69.57s2.88-9.09,8-8.73c0,0,2.77,1.15-.34,9.59a11.07,11.07,0,0,0,8.52,0,1.37,1.37,0,0,1,1.49.84c.34,1,.81,2.2-1.08,3,0,0,5.14,1.76,0,5.76,0,0-1.9,7-7.85,5.73H36.67S20.83,81.9,31.15,69.57Z"/><path class="cls-3" d="M37,74.94a20.45,20.45,0,0,0,4.29.48,21,21,0,0,0,4.77-.51,3.71,3.71,0,0,1,1.7-.6,2.64,2.64,0,0,1,1.42.19,2.1,2.1,0,0,1,.8.67,2.62,2.62,0,0,1,.36,2.35,2.85,2.85,0,0,1-1.64,1.62"/><path class="cls-3" d="M35.89,80.35S45,81.88,47,80.8"/><path class="cls-6" d="M69.9,83.39c1.21-2.69,1.52-3.18,1.8-3.87a10.71,10.71,0,0,0,.44-5.84c-.79-4.68-4.43-7.57-5.52-8.38l-3.57,5.1s-2.51-3.94-5.31-2.82c0,0-7-.33,4.1,8.76,0,0-8-5.6-8.58-3l-.83,8.21s3.38,3.63,5.91,3.79A9,9,0,0,0,62.79,87c.4,0,4.53.4,6.29-1.85A9.71,9.71,0,0,0,69.9,83.39Z"/><path class="cls-4" d="M58.59,87.59s10.41,2.63,12.17-5C70.76,82.57,71,92.62,58.59,87.59Z"/><line class="cls-4" x1="74.27" y1="86.84" x2="70.76" y2="82.57"/><path class="cls-3" d="M53.63,68.13s-1.56,1.59,7.3,7.33"/><line class="cls-3" x1="62.64" y1="68.69" x2="65.99" y2="71.28"/><path class="cls-6" d="M23.5,13.57s26.68-16.88,34.56,0c0,0,6.06,27.58-14.25,29C43.81,42.55,17.74,41.15,23.5,13.57Z"/><path class="cls-6" d="M22.62,19.15s-8.94,1.07-3.07,9.79c0,0,.94,2.94,6.92,3.16s5.87-8.61,5.87-8.61Z"/><path class="cls-3" d="M19.55,14.5l11.74,5c.08-.66.15-1.31.22-2H45.38v2h4.11c0-.69,0-1.37.07-2.06l11.9.05a21.31,21.31,0,0,1-1.09,6.57c-1.12,3.35-2.41,4.39-2.75,4.65a7.7,7.7,0,0,1-3.09,1.36,3.14,3.14,0,0,1-1.38,0c-2.5-.67-3.87-4.94-3.66-10.54H45.38a42.85,42.85,0,0,1-2.94,5.76c-1.6,2.62-2.51,3.46-3.68,3.95a6.4,6.4,0,0,1-2.81.45,6,6,0,0,1-2.77-1.5A5.55,5.55,0,0,1,32,26.48a8.48,8.48,0,0,1-.7-3.29,24.47,24.47,0,0,1,0-3.67"/><path class="cls-3" d="M21.67,21.86a3.86,3.86,0,0,1,3.61,5.08"/><path class="cls-3" d="M41.93,31.87s3.34,5.33,7.87.74"/><path class="cls-3" d="M47.27,23.82s3.47,3,0,4.58"/><line class="cls-3" x1="24.2" y1="31.65" x2="27.78" y2="31.65"/><ellipse class="cls-4" cx="39.07" cy="23.82" rx="1.5" ry="2.35"/><ellipse class="cls-4" cx="53.2" cy="23.82" rx="1.5" ry="2.35"/><path class="cls-4" d="M22.49,12c1.4-5.21,6.26-9.36,11.75-10.88A20.13,20.13,0,0,1,49.18,3.23S61,1,58.82,15.21c0,0-12.8-1.16-19.15-6-6.89,5.46-14.34,10.49-16.87,8.7C21.21,16.77,22.13,13.37,22.49,12Z"/><line class="cls-3" x1="40.79" y1="120.3" x2="39.07" y2="154.94"/></g></g></svg>