<svg width="42" height="42" viewBox="0 0 42 42" fill="none" xmlns="http://www.w3.org/2000/svg">
<path d="M21 0C15.4305 0 10.089 2.21249 6.15076 6.15076C2.21249 10.089 0 15.4305 0 21C0 26.5695 2.21249 31.911 6.15076 35.8492C10.089 39.7875 15.4305 42 21 42C26.5695 42 31.911 39.7875 35.8492 35.8492C39.7875 31.911 42 26.5695 42 21C42 15.4305 39.7875 10.089 35.8492 6.15076C31.911 2.21249 26.5695 0 21 0V0Z" fill="#57BE97"/>
<path d="M10.5 15.75H14.7V31.5H10.5V15.75ZM12.5874 13.65H12.5643C11.3106 13.65 10.5 12.7155 10.5 11.5489C10.5 10.3572 11.3358 9.44995 12.6115 9.44995C13.8894 9.44995 14.6758 10.3572 14.7 11.5489C14.7 12.7155 13.8894 13.65 12.5874 13.65ZM32.55 21.525C32.55 18.3351 29.9649 15.75 26.775 15.75C24.8199 15.75 23.0947 16.7244 22.05 18.2112V15.75H17.85V31.5H22.05V23.1C22.05 21.3601 23.4601 19.95 25.2 19.95C26.9398 19.95 28.35 21.3601 28.35 23.1V31.5H32.55C32.55 31.5 32.55 21.967 32.55 21.525Z" fill="white"/>
</svg>
